<svg width="182" height="105" viewBox="0 0 182 105" fill="none" xmlns="http://www.w3.org/2000/svg">
<mask id="mask0" mask-type="alpha" maskUnits="userSpaceOnUse" x="0" y="0" width="182" height="105">
<path fill-rule="evenodd" clip-rule="evenodd" d="M0 0H181.97V104.8H0V0Z" fill="white"/>
</mask>
<g mask="url(#mask0)">
<path d="M7.02874 100.375H5.77674L2.00978 94.653V100.375H0.757786V92.6323H2.00978L5.77674 98.3761V92.6323H7.02874V100.375ZM14.1637 97.0582C14.1637 97.2632 14.149 97.4426 14.1198 97.5963H9.46323C9.48519 98.2187 9.65725 98.6799 9.9794 98.9801C10.3015 99.2803 10.7006 99.4304 11.1765 99.4304C11.5938 99.4304 11.9452 99.3242 12.2308 99.1119C12.5237 98.8996 12.703 98.6177 12.7689 98.2663H14.1088C14.0282 98.6909 13.8598 99.068 13.6036 99.3974C13.3473 99.7269 13.0142 99.9868 12.6042 100.177C12.1942 100.36 11.7366 100.452 11.2314 100.452C10.6457 100.452 10.1258 100.327 9.67189 100.078C9.22527 99.8294 8.87384 99.4707 8.61758 99.0021C8.36132 98.5335 8.2332 97.9807 8.2332 97.3437C8.2332 96.7141 8.36132 96.165 8.61758 95.6964C8.87384 95.2278 9.22527 94.869 9.67189 94.6201C10.1258 94.3712 10.6457 94.2467 11.2314 94.2467C11.8244 94.2467 12.3406 94.3712 12.7799 94.6201C13.2265 94.8617 13.567 95.1985 13.8013 95.6305C14.0429 96.0551 14.1637 96.531 14.1637 97.0582ZM12.9007 97.0252C12.9154 96.6299 12.8458 96.3004 12.6921 96.0368C12.5456 95.7659 12.3406 95.5682 12.077 95.4438C11.8208 95.312 11.5389 95.2461 11.2314 95.2461C10.7408 95.2461 10.3308 95.3962 10.0014 95.6964C9.67189 95.9966 9.49251 96.4395 9.46323 97.0252H12.9007ZM23.8475 94.3236L22.1672 100.375H20.7834L19.2898 95.6964L17.7742 100.375H16.4014L14.7211 94.3236H15.9841L17.1373 99.2217L18.6528 94.3236H19.9707L21.5083 99.2217L22.6614 94.3236H23.8475ZM33.1206 92.6213L30.5397 97.5524V100.375H29.2768V97.5524L26.6849 92.6213H28.1346L29.9137 96.2125L31.6929 92.6213H33.1206ZM36.82 94.2467C37.4058 94.2467 37.9329 94.3712 38.4015 94.6201C38.8701 94.869 39.2362 95.2278 39.4997 95.6964C39.7633 96.165 39.8951 96.7141 39.8951 97.3437C39.8951 97.9807 39.7633 98.5335 39.4997 99.0021C39.2362 99.4707 38.8701 99.8294 38.4015 100.078C37.9329 100.327 37.4058 100.452 36.82 100.452C36.2343 100.452 35.7072 100.327 35.2386 100.078C34.7773 99.8294 34.4112 99.4707 34.1403 99.0021C33.8768 98.5262 33.745 97.9734 33.745 97.3437C33.745 96.7141 33.8768 96.165 34.1403 95.6964C34.4112 95.2278 34.7773 94.869 35.2386 94.6201C35.7072 94.3712 36.2343 94.2467 36.82 94.2467ZM36.82 95.334C36.4979 95.334 36.2014 95.4072 35.9305 95.5536C35.6596 95.7 35.4399 95.927 35.2715 96.2345C35.1104 96.5347 35.0299 96.9044 35.0299 97.3437C35.0299 97.7904 35.1104 98.1638 35.2715 98.4639C35.4399 98.7641 35.6596 98.9874 35.9305 99.1339C36.2014 99.2803 36.4979 99.3535 36.82 99.3535C37.1422 99.3535 37.4387 99.2803 37.7096 99.1339C37.9805 98.9874 38.1965 98.7641 38.3576 98.4639C38.526 98.1638 38.6102 97.7904 38.6102 97.3437C38.6102 96.9044 38.526 96.5347 38.3576 96.2345C38.1965 95.927 37.9805 95.7 37.7096 95.5536C37.4387 95.4072 37.1422 95.334 36.82 95.334ZM42.3474 95.5097C42.5524 95.1143 42.8452 94.8031 43.226 94.5762C43.6067 94.3419 44.046 94.2247 44.5438 94.2247V95.5866H44.1704C43.6213 95.5866 43.1784 95.722 42.8416 95.9929C42.5121 96.2565 42.3474 96.6958 42.3474 97.3108V100.375H41.0954V94.3236H42.3474V95.5097ZM48.905 100.375L46.7305 97.6842V100.375H45.4785V92.2479H46.7305V96.9044L48.883 94.3236H50.3876L47.7518 97.3328L50.4535 100.375H48.905ZM57.2966 92.5444C58.2484 92.5444 59.0391 92.786 59.6688 93.2693C60.2984 93.7525 60.7231 94.4078 60.9427 95.2351H59.6138C59.4308 94.7665 59.1379 94.3968 58.7352 94.1259C58.3399 93.8477 57.853 93.7086 57.2746 93.7086C56.8133 93.7086 56.3997 93.822 56.0336 94.049C55.6748 94.276 55.3893 94.6018 55.1769 95.0264C54.9719 95.4438 54.8694 95.9343 54.8694 96.4981C54.8694 97.0545 54.9719 97.5451 55.1769 97.9697C55.3893 98.3871 55.6748 98.7092 56.0336 98.9362C56.3997 99.1632 56.8133 99.2766 57.2746 99.2766C57.853 99.2766 58.3399 99.1412 58.7352 98.8703C59.1379 98.5921 59.4308 98.2223 59.6138 97.7611H60.9427C60.7231 98.5884 60.2984 99.2437 59.6688 99.7269C59.0391 100.203 58.2484 100.441 57.2966 100.441C56.5644 100.441 55.9164 100.276 55.3527 99.9466C54.7889 99.6098 54.3533 99.1448 54.0458 98.5518C53.7383 97.9514 53.5845 97.2669 53.5845 96.4981C53.5845 95.7293 53.7383 95.0484 54.0458 94.4554C54.3533 93.855 54.7889 93.3864 55.3527 93.0496C55.9164 92.7128 56.5644 92.5444 57.2966 92.5444ZM62.0127 92.5664C62.0127 92.3541 62.0859 92.1783 62.2324 92.0392C62.3788 91.9001 62.5728 91.8306 62.8144 91.8306C63.056 91.8306 63.2501 91.9001 63.3965 92.0392C63.5503 92.1783 63.6271 92.3541 63.6271 92.5664C63.6271 92.7787 63.5503 92.9508 63.3965 93.0826C63.2501 93.2144 63.056 93.2802 62.8144 93.2802C62.5728 93.2802 62.3788 93.2144 62.2324 93.0826C62.0859 92.9508 62.0127 92.7787 62.0127 92.5664ZM63.4404 94.3236V100.375H62.1884V94.3236H63.4404ZM67.9942 99.2876V100.375H67.2254C66.5811 100.375 66.0906 100.221 65.7538 99.9136C65.4243 99.5988 65.2596 99.079 65.2596 98.3541V95.3889H64.392V94.3236H65.2596V92.819H66.5225V94.3236H67.9832V95.3889H66.5225V98.3761C66.5225 98.7202 66.5848 98.9581 66.7092 99.0899C66.841 99.2217 67.068 99.2876 67.3902 99.2876H67.9942ZM69.8774 94.3236L71.6895 98.7714L73.3698 94.3236H74.7646L71.1074 103.252H69.7127L71.0196 100.232L68.4717 94.3236H69.8774Z" fill="black"/>
<path fill-rule="evenodd" clip-rule="evenodd" d="M14.0803 26.0596V25.4597C17.6791 25.4597 21.745 25.3931 21.745 18.9283H22.3445V32.5911H21.745C21.745 26.1262 17.6125 26.0596 14.0803 26.0596ZM29.076 2.53259V13.8627H28.4765C28.4765 3.59892 23.6113 3.13216 14.0803 3.13216V2.53259H29.076ZM7.88173 42.4553C7.88173 47.987 9.21472 48.8536 12.2809 48.8536V49.4535H0.550293V48.8536C3.34978 48.8536 3.81653 47.5206 3.81653 42.9883V7.5313C3.81653 3.39883 3.48294 3.13216 0.550293 3.13216V2.53259H7.88173V42.4553Z" fill="black"/>
<path fill-rule="evenodd" clip-rule="evenodd" d="M35.4751 12.2633C34.2087 12.2633 33.2755 11.2635 33.2755 10.0637C33.2755 8.73104 34.2087 7.73096 35.4751 7.73096C36.6746 7.73096 37.7413 8.73104 37.7413 10.0637C37.7413 11.2635 36.6746 12.2633 35.4751 12.2633ZM37.8078 45.1878C37.8078 48.8535 38.1411 48.2536 40.5404 48.8535V49.4534H31.8094V48.8535C34.3419 48.1204 34.4754 48.5869 34.4754 45.1878V22.9937C34.4754 20.661 34.009 19.7279 31.2095 19.7279V19.1949L37.8078 18.0616V45.1878Z" fill="black"/>
<path fill-rule="evenodd" clip-rule="evenodd" d="M62.0008 4.46525C61.601 5.79824 60.2014 6.53132 58.8681 6.13149C57.5351 5.73132 56.7355 4.39867 57.2022 2.9991C57.4023 2.33261 57.8687 1.79928 58.3351 1.59919C58.5349 1.46603 58.135 0.866115 57.4023 0.599448V-0.00012207C59.3345 0.266544 60.8676 1.13278 61.3343 1.66611C61.9343 2.33261 62.2672 3.53209 62.0008 4.46525ZM53.2698 0.332782V0.933039C51.4035 2.66551 50.4703 7.73114 50.4703 18.6614H58.2685L58.135 19.2613H50.4703V45.5875C50.4703 48.9199 51.8033 48.6533 54.2027 48.9199V49.4533H44.5388V48.9199C47.0713 48.587 47.1379 48.6533 47.1379 45.5875V19.2613H42.8726L42.8057 18.6614H47.1379C47.1379 7.06465 48.4709 1.66611 53.2698 0.332782Z" fill="black"/>
<path fill-rule="evenodd" clip-rule="evenodd" d="M75.7972 44.9212L76.197 45.0547C75.6637 47.7872 73.6642 50.0531 70.3986 50.0531C65.9995 50.0531 63.2004 47.9204 63.2004 39.8559V19.2611H59.8013L59.7344 18.6616H63.2004V8.59758L66.5328 8.19775V18.6616H74.3976L74.2641 19.2611H66.5328V39.6558C66.5328 46.5208 68.732 48.2537 71.7313 48.2537C73.6642 48.2537 75.3308 46.7209 75.7972 44.9212Z" fill="black"/>
<path fill-rule="evenodd" clip-rule="evenodd" d="M106.323 48.9201V49.4534H97.6585V48.9201C100.191 48.187 100.324 48.5868 100.324 45.1878V29.4586C100.324 23.5937 97.525 19.8614 92.0595 19.8614C89.9272 19.8614 88.1944 20.8611 86.8611 22.0606L86.3278 21.3941C88.1944 19.3946 90.7935 18.0616 93.5926 18.0616C99.1912 18.0616 103.59 21.194 103.59 29.1923V45.1878C103.59 48.8535 103.99 48.3202 106.323 48.9201ZM86.5948 48.8535V49.4534H77.8634V48.8535C80.3962 48.1204 80.5297 48.5868 80.5297 45.1878V5.79839C80.5297 3.46566 79.9964 2.5325 77.1973 2.5325V1.93259L83.8622 0.799683V45.1878C83.8622 48.8535 84.1951 48.2536 86.5948 48.8535Z" fill="black"/>
<path fill-rule="evenodd" clip-rule="evenodd" d="M42.3393 86.2623V86.8622H31.0089V86.2623C33.0087 86.2623 35.1414 85.7956 32.0086 78.331L29.4096 71.5328H10.6811C7.01543 82.1968 5.34919 86.2623 13.3468 86.2623V86.8622H0.0175781V86.2623C3.28313 86.2623 4.94936 85.1291 9.74798 70.9329H29.2095L19.1455 44.6064L20.8117 39.9413H21.0784L37.0077 80.2639C39.1403 85.5958 40.3401 86.1288 42.3393 86.2623Z" fill="black"/>
<path fill-rule="evenodd" clip-rule="evenodd" d="M67.5998 56.0703V56.6036C64.0672 56.6036 62.5345 56.6036 59.735 64.6682L59.202 64.268C59.6018 63.1351 61.5347 56.6036 54.8698 56.6036V56.0703H67.5998ZM42.6728 60.8689L53.0038 83.4628L51.6042 87.4618H51.2706C39.4738 61.8687 38.3409 59.8026 38.3409 59.8026C36.6747 56.6702 34.6749 56.7368 33.6089 56.6036V56.0703H45.5389V56.6036C40.407 56.6036 42.6728 60.8689 42.6728 60.8689Z" fill="black"/>
<path fill-rule="evenodd" clip-rule="evenodd" d="M90.86 79.1309L91.2602 79.1975C90.9266 81.9969 87.4613 87.4617 80.6628 87.4617C72.7984 87.4617 66.9331 81.6633 66.9331 71.866C66.9331 62.5354 71.9318 56.7367 78.2635 55.6704V56.2703C74.7975 57.4032 70.8655 61.6689 70.8655 70.1998H88.9274C88.9274 61.5354 85.2617 57.4698 82.3956 56.2703V55.6704C87.5275 56.6702 92.2596 61.5354 92.2596 70.8663H70.8655C70.8655 82.2633 75.531 86.1291 81.5294 86.1291C85.9948 86.1291 90.0603 82.5965 90.86 79.1309Z" fill="black"/>
<path fill-rule="evenodd" clip-rule="evenodd" d="M123.452 86.3289V86.8623H114.787V86.3289C117.32 85.5959 117.453 85.9957 117.453 82.5966V66.8674C117.453 61.0025 114.654 57.2702 109.189 57.2702C107.189 57.2702 105.523 58.1364 104.256 59.2028L103.59 58.6028C105.456 56.7369 108.056 55.4705 110.721 55.4705C116.32 55.4705 120.719 58.6028 120.719 66.6011V82.5966C120.719 86.2624 121.119 85.729 123.452 86.3289ZM103.99 86.2624V86.8623H95.2591V86.2624C97.7916 85.5293 97.9248 85.9957 97.9248 82.5966V60.4692C97.9248 58.1364 97.3918 57.1367 94.5923 57.1367V56.6037L101.257 55.4705V82.5966C101.257 86.2624 101.591 85.6624 103.99 86.2624Z" fill="black"/>
<path fill-rule="evenodd" clip-rule="evenodd" d="M154.111 85.9958V86.5288L148.779 87.3954C147.312 87.7286 147.379 86.6623 147.379 86.6623V61.3355C147.379 57.27 147.379 57.2034 144.247 57.2034V56.6701L150.711 55.4706V81.8633C150.711 85.0627 151.311 85.6626 154.111 85.9958ZM145.046 84.796C143.513 86.2625 141.447 87.462 138.648 87.462C134.316 87.462 128.051 86.129 128.051 77.5311V61.8023C128.051 57.2034 128.051 57.2034 124.318 57.2034V56.6701L131.25 55.4706V77.3314C131.25 83.6631 135.515 85.7292 139.381 85.7292C141.514 85.7292 143.313 85.2627 144.58 84.263L145.046 84.796Z" fill="black"/>
<path fill-rule="evenodd" clip-rule="evenodd" d="M180.57 79.1309L180.97 79.1975C180.637 81.9969 177.171 87.4617 170.373 87.4617C162.508 87.4617 156.643 81.6633 156.643 71.866C156.643 62.5354 161.642 56.7367 167.973 55.6704V56.2703C164.507 57.4032 160.575 61.6689 160.575 70.1998H178.637C178.637 61.5354 174.972 57.4698 172.106 56.2703V55.6704C177.237 56.6702 181.97 61.5354 181.97 70.8663H160.575C160.575 82.2633 165.241 86.1291 171.239 86.1291C175.705 86.1291 179.77 82.5965 180.57 79.1309Z" fill="black"/>
<path fill-rule="evenodd" clip-rule="evenodd" d="M5.56903 58.1827L2.91541 64.4265H1.41357L4.09808 58.3471H0.734375V57.1027H5.56903V58.1827Z" fill="black"/>
<path fill-rule="evenodd" clip-rule="evenodd" d="M6.27832 58.522V57.1643H8.8911V64.4264H7.36901V58.522H6.27832Z" fill="black"/>
<path fill-rule="evenodd" clip-rule="evenodd" d="M9.67285 58.522V57.1643H12.2856V64.4264H10.7635V58.522H9.67285Z" fill="black"/>
</g>
</svg>
